<?xml version="1.0" standalone="no"?>
<!DOCTYPE svg PUBLIC "-//W3C//DTD SVG 20010904//EN"
 "http://www.w3.org/TR/2001/REC-SVG-20010904/DTD/svg10.dtd">
<svg version="1.0" xmlns="http://www.w3.org/2000/svg"
 width="700.000000pt" height="700.000000pt" viewBox="0 0 700.000000 700.000000"
 preserveAspectRatio="xMidYMid meet">
<metadata>
Created by potrace 1.14, written by Peter Selinger 2001-2017
</metadata>
<g transform="translate(0.000000,700.000000) scale(0.100000,-0.100000)"
fill="#000000" stroke="none">
<path d="M1895 6119 c-533 -68 -949 -490 -1015 -1029 -13 -111 -13 -724 1
-847 27 -247 139 -488 309 -667 l73 -76 -73 -76 c-171 -180 -282 -419 -309
-667 -14 -122 -14 -723 -1 -842 37 -324 203 -614 465 -811 134 -100 282 -167
460 -207 95 -21 121 -22 520 -22 301 0 440 4 490 13 239 44 452 152 622 315
l63 60 76 -72 c156 -149 350 -249 574 -297 98 -21 735 -31 904 -15 300 29 516
131 726 341 204 204 308 419 339 704 14 123 14 699 0 822 -29 260 -131 485
-303 670 l-78 84 64 69 c91 96 150 182 208 302 106 223 124 362 117 882 -4
344 -6 367 -30 467 -41 170 -103 302 -202 435 -195 261 -485 428 -810 465
-119 13 -720 13 -842 -1 -247 -27 -488 -139 -667 -309 l-76 -73 -76 73 c-180
171 -419 282 -667 309 -114 13 -761 12 -862 0z"/>
</g>
</svg>
