<?xml version="1.0" standalone="no"?>
<!DOCTYPE svg PUBLIC "-//W3C//DTD SVG 20010904//EN"
 "http://www.w3.org/TR/2001/REC-SVG-20010904/DTD/svg10.dtd">
<svg version="1.0" xmlns="http://www.w3.org/2000/svg"
 width="256.000000pt" height="256.000000pt" viewBox="0 0 256.000000 256.000000"
 preserveAspectRatio="xMidYMid meet">
<metadata>
Created by potrace 1.14, written by Peter Selinger 2001-2017
</metadata>
<g transform="translate(0.000000,256.000000) scale(0.100000,-0.100000)"
fill="#000000" stroke="none">
<path d="M341 2447 c-6 -6 -11 -8 -11 -4 0 15 -96 -42 -125 -74 -17 -19 -40
-58 -52 -87 -20 -47 -22 -69 -21 -222 1 -94 5 -170 10 -170 4 0 8 -8 8 -19 0
-53 94 -153 163 -172 28 -8 138 -12 342 -12 342 1 362 5 433 84 63 70 70 98
73 314 0 6 -2 51 -4 101 -4 77 -9 97 -32 134 -34 54 -70 88 -113 105 -18 8
-34 13 -36 12 -1 -1 -10 4 -19 12 -14 11 -17 11 -17 0 0 -10 -3 -10 -8 -3 -10
15 -576 16 -591 1z"/>
<path d="M1620 2450 c-8 -4 -32 -16 -54 -26 -49 -24 -91 -65 -119 -118 -22
-41 -22 -46 -22 -492 l0 -450 24 -47 c28 -54 70 -95 126 -122 36 -18 66 -20
320 -22 186 -2 298 1 335 9 30 6 58 12 62 12 3 1 18 11 32 23 14 13 26 20 26
17 0 -11 47 51 64 83 9 18 16 39 16 48 0 9 3 14 8 12 9 -6 9 64 0 79 -4 6 -4
14 0 18 11 12 9 136 -3 136 -6 0 -6 3 1 8 13 9 13 145 -1 154 -7 5 -7 8 1 8
12 0 13 118 1 137 -4 6 -4 14 1 17 10 6 10 126 -1 143 -4 6 -4 14 1 17 10 6 8
133 -2 161 -36 93 -71 133 -146 171 l-55 28 -300 1 c-165 1 -307 -1 -315 -5z"/>
<path d="M328 1415 c-74 -19 -145 -81 -169 -147 -7 -21 -17 -38 -22 -38 -5 0
-3 -8 4 -17 8 -9 9 -14 3 -10 -9 5 -11 -103 -8 -416 1 -232 5 -431 7 -442 12
-65 86 -150 157 -180 40 -16 76 -18 335 -20 351 -1 381 5 460 94 62 71 63 75
60 553 -1 238 -4 440 -6 448 -20 65 -83 134 -148 163 -43 20 -64 21 -338 22
-185 1 -307 -3 -335 -10z"/>
<path d="M1606 903 c-42 -11 -111 -63 -144 -110 -34 -49 -42 -112 -39 -298 3
-147 6 -175 22 -204 30 -53 75 -94 130 -121 50 -23 53 -24 355 -23 289 0 308
1 352 21 43 19 144 109 134 120 -2 2 2 20 11 40 22 52 24 74 10 91 -7 9 -8 12
-1 8 14 -8 13 100 0 122 -6 9 -5 12 1 8 16 -10 8 134 -10 177 -10 21 -17 41
-17 45 -1 18 -74 84 -118 106 l-50 25 -308 -1 c-170 -1 -318 -4 -328 -6z"/>
</g>
</svg>
