<?xml version="1.0" standalone="no"?>
<!DOCTYPE svg PUBLIC "-//W3C//DTD SVG 20010904//EN"
 "http://www.w3.org/TR/2001/REC-SVG-20010904/DTD/svg10.dtd">
<svg version="1.0" xmlns="http://www.w3.org/2000/svg"
 width="800.000000pt" height="800.000000pt" viewBox="0 0 800.000000 800.000000"
 preserveAspectRatio="xMidYMid meet">
<metadata>
Created by potrace 1.14, written by Peter Selinger 2001-2017
</metadata>
<g transform="translate(0.000000,800.000000) scale(0.100000,-0.100000)"
fill="#000000" stroke="none">
<path d="M3957 7005 c-1 -1 -51 -5 -112 -8 -60 -4 -135 -11 -165 -16 -30 -6
-67 -12 -82 -15 -206 -35 -468 -120 -663 -216 -368 -181 -675 -441 -927 -785
-344 -469 -501 -1048 -455 -1675 29 -391 162 -786 375 -1120 122 -191 426
-526 499 -551 95 -31 193 45 193 149 0 45 -12 62 -116 172 -290 304 -450 563
-554 895 -175 560 -132 1141 120 1651 111 224 229 389 406 569 208 210 408
346 704 478 120 54 377 124 515 141 238 30 481 28 685 -5 258 -41 565 -153
793 -289 347 -206 658 -549 831 -914 25 -53 46 -102 46 -109 0 -7 4 -17 9 -22
14 -16 79 -224 101 -322 145 -668 -9 -1355 -419 -1865 -57 -71 -122 -143 -239
-266 -55 -58 -69 -96 -58 -158 16 -80 120 -134 198 -101 32 13 127 102 228
213 374 408 593 911 636 1455 38 488 -47 932 -256 1344 -160 317 -376 587
-643 806 -316 260 -670 425 -1098 514 -9 2 -34 6 -55 9 -22 3 -50 8 -64 11
-81 16 -421 39 -433 30z"/>
<path d="M4005 6220 c-58 -13 -99 -54 -109 -111 -3 -13 -5 -313 -5 -667 -1
-531 -3 -643 -14 -640 -8 2 -113 116 -234 253 -121 138 -229 258 -239 267 -11
9 -38 21 -62 26 -78 18 -158 -42 -169 -126 -6 -45 20 -99 74 -157 16 -16 87
-97 158 -180 71 -82 134 -155 140 -161 5 -6 37 -42 71 -80 33 -38 109 -123
167 -188 l107 -120 1 -220 c0 -122 0 -252 1 -289 0 -38 -2 -70 -4 -73 -3 -2
-18 13 -35 34 -28 34 -147 173 -313 362 -31 36 -88 101 -125 145 -38 44 -72
82 -75 85 -3 3 -37 41 -75 85 -39 44 -72 82 -75 85 -3 3 -32 37 -65 75 -33 39
-64 75 -70 81 -5 6 -64 73 -130 149 -66 76 -131 150 -145 165 -14 15 -60 66
-103 113 -87 95 -136 125 -198 122 -68 -4 -127 -61 -132 -128 -4 -43 26 -102
83 -164 112 -122 254 -278 310 -342 36 -41 70 -79 75 -85 6 -6 35 -40 65 -76
30 -36 57 -67 61 -70 24 -22 189 -223 189 -230 0 -6 -77 -10 -203 -10 -112 0
-207 -3 -210 -6 -8 -8 11 -35 121 -176 l84 -108 241 0 242 0 145 -173 c80 -94
184 -215 231 -267 47 -52 90 -104 96 -115 11 -22 10 -303 -1 -375 -12 -76 -93
-468 -126 -610 -17 -74 -53 -234 -81 -354 -27 -121 -51 -221 -54 -224 -2 -3
-9 6 -14 19 -5 13 -45 98 -89 189 -86 179 -129 233 -194 245 -18 3 -280 5
-583 3 l-550 -3 -37 -23 c-53 -33 -74 -74 -103 -198 -40 -171 -57 -224 -69
-224 -11 0 -50 155 -186 735 -17 72 -40 145 -50 163 -43 71 -157 76 -221 11
-31 -32 -38 -53 -96 -294 l-38 -160 -70 -5 c-82 -7 -128 -30 -150 -76 -33 -70
-9 -154 57 -194 31 -19 48 -20 229 -18 l196 3 63 -250 c95 -376 123 -472 151
-501 70 -77 192 -75 247 3 26 38 31 53 117 403 42 168 78 313 81 323 5 16 35
17 455 17 l449 0 24 -38 c22 -35 124 -241 176 -357 12 -27 36 -79 52 -115 16
-36 43 -94 59 -130 51 -112 136 -145 214 -85 50 38 68 82 104 266 39 194 34
168 71 339 17 80 42 195 55 255 45 210 47 216 60 203 3 -3 26 -113 51 -244 53
-287 48 -262 74 -389 5 -27 12 -63 15 -80 2 -16 9 -55 15 -85 6 -30 13 -71 16
-90 8 -53 33 -133 47 -151 40 -50 120 -66 175 -33 33 19 78 86 110 162 13 29
41 92 63 140 23 48 52 112 66 142 62 136 84 183 109 234 l27 56 478 0 478 0
10 -37 c18 -68 108 -436 130 -533 29 -123 51 -171 93 -203 82 -63 199 -25 244
80 8 17 27 83 44 145 16 62 34 129 40 148 5 19 30 117 56 217 l47 182 202 3
c223 3 218 2 267 71 25 35 26 106 3 145 -28 47 -62 64 -134 70 -36 2 -69 10
-73 16 -4 6 -19 63 -34 126 -67 296 -77 320 -142 351 -67 33 -150 9 -186 -52
-13 -22 -111 -403 -132 -514 -8 -42 -53 -232 -71 -300 -12 -43 -24 -70 -32
-70 -14 0 -20 20 -66 217 -30 130 -59 183 -116 211 -31 15 -91 16 -631 14
l-596 -2 -44 -30 c-47 -34 -87 -106 -170 -302 -24 -56 -47 -101 -53 -100 -7 3
-76 332 -99 477 -3 19 -8 49 -11 65 -4 17 -17 86 -30 155 -34 183 -38 204 -40
210 0 3 -4 26 -8 51 -10 60 -16 93 -27 158 -6 30 -10 85 -10 121 0 66 0 67 58
136 32 38 73 89 92 114 19 25 39 50 45 56 5 7 64 83 130 169 66 87 159 208
206 269 l86 111 179 3 c98 1 188 4 199 7 31 7 214 260 198 276 -4 4 -84 9
-176 9 -187 2 -188 2 -134 67 36 44 70 88 119 153 82 109 267 352 325 425 198
253 205 263 210 307 8 86 -52 153 -137 152 -65 -2 -98 -27 -180 -141 -35 -48
-69 -92 -75 -98 -7 -5 -29 -35 -50 -65 -22 -30 -42 -57 -45 -60 -3 -3 -24 -30
-48 -60 -23 -30 -45 -60 -50 -65 -4 -6 -53 -69 -108 -140 -54 -72 -198 -261
-320 -420 -121 -160 -287 -379 -368 -487 -81 -109 -151 -198 -156 -198 -13 0
-10 531 3 561 7 14 71 102 142 194 72 92 162 209 200 259 39 50 148 190 241
311 195 251 221 288 228 330 15 81 -50 165 -127 165 -60 0 -98 -28 -168 -122
-59 -79 -152 -200 -174 -224 -5 -7 -19 -24 -30 -39 -71 -99 -302 -389 -312
-392 -9 -3 -11 182 -10 775 1 753 0 780 -19 812 -35 60 -86 84 -149 70z"/>
<path d="M3332 5981 c-11 -9 -13 -29 -14 -116 -1 -91 14 -150 53 -215 47 -77
138 -130 235 -138 69 -5 77 1 89 68 33 187 -72 342 -265 392 -47 12 -88 15
-98 9z"/>
<path d="M4640 5972 c-177 -47 -289 -184 -277 -342 2 -36 10 -77 16 -92 10
-26 15 -28 65 -28 112 0 223 74 271 181 44 98 47 290 4 296 -8 1 -43 -6 -79
-15z"/>
<path d="M2678 5708 c-6 -46 10 -140 34 -185 29 -57 79 -98 139 -114 79 -21
116 1 126 77 11 79 -51 179 -132 215 -22 9 -68 20 -102 24 -59 6 -62 5 -65
-17z"/>
<path d="M5262 5715 c-55 -17 -117 -63 -141 -106 -42 -73 -31 -188 19 -204 39
-12 108 5 153 38 61 46 94 118 96 213 l2 75 -44 -2 c-25 -2 -63 -8 -85 -14z"/>
<path d="M2334 4585 c-97 -33 -103 -41 -68 -106 41 -74 103 -140 160 -169 67
-34 170 -35 232 -2 40 22 42 24 42 70 0 81 -73 181 -155 212 -54 20 -142 18
-211 -5z"/>
<path d="M5595 4603 c-47 -5 -134 -53 -159 -87 -57 -76 -78 -162 -45 -192 22
-20 102 -44 148 -44 100 0 205 77 269 197 l33 62 -49 25 c-59 30 -136 45 -197
39z"/>
<path d="M2707 3700 c-64 -25 -127 -78 -167 -140 -31 -49 -32 -51 -14 -65 11
-8 47 -26 82 -40 79 -32 175 -34 231 -5 45 22 105 89 120 131 9 26 6 33 -20
63 -58 66 -150 89 -232 56z"/>
<path d="M5213 3699 c-54 -21 -103 -67 -103 -99 0 -10 15 -40 33 -66 59 -90
176 -129 282 -94 53 17 135 61 135 72 0 18 -58 94 -100 132 -78 70 -159 88
-247 55z"/>
</g>
</svg>
